<svg viewBox="0 0 480 520" width="80" xmlns="http://www.w3.org/2000/svg" style="display:block;">
      <rect fill="#FCE400" x="24" y="62.99" width="432" height="298.8" rx="16" ry="16"></rect>
      <path fill="#2D326A" d="M150.11,184.54c-6.57,0-12.78,1.47-18.39,4.03v-39.28c0-3.7-3-6.7-6.7-6.7h-12.55c-3.7,0-6.7,3-6.7,6.7v79.18s.02.05.02.08c0,.11-.02.22-.02.34,0,24.49,19.85,44.34,44.34,44.34s44.34-19.85,44.34-44.34-19.85-44.34-44.34-44.34ZM150.11,247.27c-10.16,0-18.39-8.23-18.39-18.39s8.23-18.39,18.39-18.39,18.39,8.23,18.39,18.39-8.23,18.39-18.39,18.39Z"></path>
      <path fill="#2D326A" d="M248.38,184.54c-6.57,0-12.78,1.47-18.39,4.03v-39.28c0-3.7-3-6.7-6.7-6.7h-12.55c-3.7,0-6.7,3-6.7,6.7v79.18s.02.05.02.08c0,.11-.02.22-.02.34,0,24.49,19.85,44.34,44.34,44.34s44.34-19.85,44.34-44.34-19.85-44.34-44.34-44.34ZM248.38,247.27c-10.16,0-18.39-8.23-18.39-18.39s8.23-18.39,18.39-18.39,18.39,8.23,18.39,18.39-8.23,18.39-18.39,18.39Z"></path>
      <path fill="#2D326A" d="M374.23,250.55v18.79c0,1.72-1.39,3.11-3.11,3.11h-3.98c-12.91,0-24.39-3.64-34.14-10.03-1.04-.68-2.36-.7-3.41-.03-5.67,3.61-11.69,6.64-18.16,9.09-1.5.57-3.19-.14-3.88-1.58l-7.3-15.25c-.76-1.58-.06-3.48,1.54-4.18,3.46-1.51,6.82-3.29,9.99-5.24,1.45-.89,1.95-2.78,1.07-4.23-8.03-13.29-12.42-30.09-12.42-48.93,0-31.58,14.73-49.5,36.91-49.5s35.31,16.15,35.31,43.65c0,19.32-6.73,38.33-18.71,53.8-1.27,1.63-.57,3.99,1.34,4.78,4.12,1.7,8.55,2.63,13.29,2.63h2.56c1.72,0,3.11,1.39,3.11,3.11ZM327.04,190.13c0,12.6,2.48,24.13,7.09,33.53,7.45-11,11.71-23.95,11.71-37.44,0-12.06-3.37-18.63-9.05-18.63s-9.76,7.1-9.76,22.53"></path>
      <text fill="#2D326A" style="font-family:Montserrat,Arial,sans-serif;font-size:36px;font-weight:700;letter-spacing:6px;" transform="translate(94.57 446)">BEYOND THE BASICS</text>
    </svg>