<svg viewBox="0 0 331.85 192.09" width="190" xmlns="http://www.w3.org/2000/svg" style="display:block;"><path fill="#2D326A" d="M199.81,93.68c1.9-1.6,3.1-4.07,3.57-7.32.36-2.5.13-4.55-.67-6.09-.75-1.45-2.01-2.15-3.84-2.15-2.42,0-4.5,1.38-6.36,4.21-1.92,2.92-3.22,6.75-3.87,11.4-.15.98-.26,1.77-.33,2.38h2.53c4.06,0,7.08-.82,8.98-2.42Z"></path><path fill="#2D326A" d="M263.42,66.2c-5.61-.47-12.71,5.53-21.7,18.34l-6.28,8.62,10.12,24.38h-9.32s-.18-.44-.18-.44l-6.51-15.85-11.76,16.14-.06.08c-7.08,10.84-12.61,18.5-16.41,22.77-3.59,4.02-6.58,5.96-8.89,5.77-2.12-.18-3.55-.97-4.27-2.36-.83-1.62-.84-4.24-.09-7.65.64-2.13,1.28-4.02,1.94-5.64,1.22,1.06,2.9,1.68,5.01,1.86,6.43.54,13.91-5.8,22.8-19.33l10.51-14.56-9.66-23.51h9.15s6.38,15.38,6.38,15.38l7.39-10.23c6.42-9.6,11.56-16.47,15.28-20.41,1.08-1.15,2.12-2.04,3.14-2.81-1.83-1.84-4.14-3.23-6.81-3.87l-74.19-17.7c-4.3-1.03-8.7-1.54-13.09-1.54-4.39,0-8.79.52-13.09,1.54l-74.19,17.7c-6.45,1.54-11,7.3-11,13.93v57.26c0,6.62,4.54,12.38,10.98,13.92l83.96,20.11c2.19.53,4.48.53,6.67,0l83.96-20.11c6.44-1.54,10.98-7.3,10.98-13.92v-57.26c0-.14-.03-.27-.04-.41-.26-.04-.47-.15-.75-.18ZM109.4,90.25l-3.98,27.29h-8.72s4.01-27.59,4.01-27.59c.69-4.61.59-7.81-.3-9.53-.84-1.62-2.27-2.41-4.38-2.41-1.83,0-3.81.37-5.9,1.11l-5.57,38.42h-8.72s5.72-39.5,5.72-39.5l.32-.17c5.1-2.63,10.34-3.96,15.57-3.96,4.35,0,7.6,1.2,9.65,3.57,2.36,2.72,3.14,7.02,2.31,12.78ZM145.12,113.57c.26.63,1.13.96,2.57.96h1.25s-1.21,3.4-1.21,3.4l-.37.09c-1.44.34-2.95.51-4.47.51-2.34,0-4.08-.7-5.19-2.09-5.08,2.49-10.32,2.68-14.43.88-1.83-.8-3.51-2.12-4.98-3.94-1.48-1.81-2.48-4.2-2.97-7.1-.48-2.84-.46-6.36.04-10.46,1.02-7.05,3.57-12.51,7.59-16.26,4.04-3.76,8.66-5.67,13.73-5.67,4.07,0,8.3,1.1,12.58,3.26l.46.23-4.55,30.67c-.46,3.53-.28,4.94-.05,5.5ZM173.11,117.48l-.35.12c-2.06.68-4.36,1.03-6.85,1.03-3.84,0-6.58-1.38-8.11-4.09-1.5-2.65-1.84-6.6-1.04-12.05l3.45-23.68h-5.56s.64-4.01.64-4.01h5.74s7.28-13.24,7.28-13.24h3.14s-1.9,13.24-1.9,13.24h9.95s-.64,4.01-.64,4.01h-9.93s-3.47,23.79-3.47,23.79c-.64,4.77-.67,8-.08,9.61.54,1.45,1.65,2.12,3.52,2.12,1.22,0,2.64-.19,4.22-.57l1.2-.29-1.21,4.02ZM182.04,111.94c-2.9-4.38-3.86-10.14-2.84-17.12.95-6.5,3.41-11.66,7.29-15.35,3.9-3.7,8.31-5.57,13.11-5.57,4.37,0,7.76,1.19,10.08,3.55,2.33,2.38,3.22,5.55,2.63,9.42-.46,3.34-1.96,6.13-4.46,8.3-2.45,2.12-5.19,3.58-8.15,4.33-2.9.74-6.16,1.11-9.69,1.11h-1.82c.24,3.72,1.19,6.63,2.82,8.65,1.72,2.14,3.94,3.17,6.78,3.17,3.82,0,7.28-1.47,10.27-4.37l.81-.79,1.14,3.42-.24.3c-3.98,5.07-8.93,7.64-14.71,7.64-5.69,0-10.07-2.25-13.02-6.69Z"></path><path fill="#2D326A" d="M129.45,81.92c-2.17,2.74-3.74,7.19-4.65,13.21-.86,5.89-.68,10.54.54,13.83,1.16,3.14,3.03,4.67,5.71,4.67,1.54,0,3.15-.51,4.81-1.51l4.94-33.36c-1.01-.56-2.39-.85-4.12-.85-2.72,0-5.08,1.31-7.23,4.01Z"></path></svg>